<?xml version="1.0" encoding="UTF-8"?>
<!DOCTYPE svg PUBLIC "-//W3C//DTD SVG 1.1//EN" "http://www.w3.org/Graphics/SVG/1.1/DTD/svg11.dtd">
<!-- Creator: CorelDRAW -->
<svg xmlns="http://www.w3.org/2000/svg" xml:space="preserve" width="2.38366in" height="1.1633in" version="1.1" style="shape-rendering:geometricPrecision; text-rendering:geometricPrecision; image-rendering:optimizeQuality; fill-rule:evenodd; clip-rule:evenodd"
viewBox="0 0 193.02 94.2"
 xmlns:xlink="http://www.w3.org/1999/xlink"
 xmlns:xodm="http://www.corel.com/coreldraw/odm/2003">
 <defs>
  <style type="text/css">
   <![CDATA[
    .fil0 {fill:black;fill-rule:nonzero}
    .fil1 {fill:#09D0E5;fill-rule:nonzero}
   ]]>
  </style>
 </defs>
 <g id="Layer_x0020_1">
  <metadata id="CorelCorpID_0Corel-Layer"/>
  <g id="_2244446582576">
   <path class="fil0" d="M59 40.12c0,4.17 -0.79,8.04 -2.36,11.62 -1.57,3.58 -3.72,6.69 -6.43,9.32 -2.71,2.64 -5.84,4.72 -9.38,6.25 -3.54,1.53 -7.32,2.3 -11.33,2.3 -5.03,0 -9.56,-1.08 -13.57,-3.25 -4.01,-2.16 -7.36,-5.02 -10.03,-8.56l0 22.42 -5.9 0 0 -40.12c0,-4.09 0.77,-7.95 2.3,-11.56 1.53,-3.62 3.62,-6.75 6.25,-9.38 2.64,-2.64 5.74,-4.72 9.32,-6.25 3.58,-1.53 7.45,-2.3 11.62,-2.3 4.01,0 7.79,0.77 11.33,2.3 3.54,1.53 6.67,3.62 9.38,6.25 2.71,2.64 4.86,5.76 6.43,9.38 1.57,3.62 2.36,7.47 2.36,11.56zm-5.9 0c0,-3.23 -0.63,-6.27 -1.89,-9.15 -1.26,-2.87 -2.95,-5.37 -5.07,-7.49 -2.12,-2.12 -4.62,-3.82 -7.49,-5.07 -2.87,-1.26 -5.92,-1.89 -9.15,-1.89 -3.23,0 -6.27,0.63 -9.15,1.89 -2.87,1.26 -5.37,2.95 -7.49,5.07 -2.12,2.12 -3.82,4.62 -5.07,7.49 -1.26,2.87 -1.89,5.92 -1.89,9.15 0,3.23 0.63,6.27 1.89,9.15 1.26,2.87 2.95,5.37 5.07,7.49 2.12,2.12 4.62,3.82 7.49,5.07 2.87,1.26 5.92,1.89 9.15,1.89 3.23,0 6.27,-0.63 9.15,-1.89 2.87,-1.26 5.37,-2.95 7.49,-5.07 2.12,-2.12 3.82,-4.62 5.07,-7.49 1.26,-2.87 1.89,-5.92 1.89,-9.15zm9.27 0c0,-4.09 0.77,-7.95 2.3,-11.56 1.53,-3.62 3.62,-6.75 6.25,-9.38 2.64,-2.64 5.74,-4.72 9.32,-6.25 3.58,-1.53 7.45,-2.3 11.62,-2.3 4.72,0 9.17,1.08 13.33,3.25 4.17,2.16 7.59,5.02 10.27,8.56l0 -22.42 5.9 0 0 40.12c0,4.17 -0.77,8.04 -2.3,11.62 -1.53,3.58 -3.62,6.69 -6.25,9.32 -2.64,2.64 -5.76,4.72 -9.38,6.25 -3.62,1.53 -7.47,2.3 -11.56,2.3 -4.17,0 -8.04,-0.77 -11.62,-2.3 -3.58,-1.53 -6.69,-3.62 -9.32,-6.25 -2.64,-2.64 -4.72,-5.74 -6.25,-9.32 -1.53,-3.58 -2.3,-7.45 -2.3,-11.62zm5.9 0c0,3.23 0.63,6.27 1.89,9.15 1.26,2.87 2.95,5.37 5.07,7.49 2.12,2.12 4.62,3.82 7.49,5.07 2.87,1.26 5.92,1.89 9.15,1.89 3.23,0 6.27,-0.63 9.15,-1.89 2.87,-1.26 5.37,-2.95 7.49,-5.07 2.12,-2.12 3.82,-4.62 5.07,-7.49 1.26,-2.87 1.89,-5.92 1.89,-9.15 0,-3.23 -0.63,-6.27 -1.89,-9.15 -1.26,-2.87 -2.95,-5.37 -5.07,-7.49 -2.12,-2.12 -4.62,-3.82 -7.49,-5.07 -2.87,-1.26 -5.92,-1.89 -9.15,-1.89 -3.23,0 -6.27,0.63 -9.15,1.89 -2.87,1.26 -5.37,2.95 -7.49,5.07 -2.12,2.12 -3.82,4.62 -5.07,7.49 -1.26,2.87 -1.89,5.92 -1.89,9.15z"/>
   <path class="fil1" d="M141.27 16.52c-2.99,0 -5.51,0.92 -7.55,2.77 -2.05,1.85 -3.07,4.27 -3.07,7.26 0,2.99 1.02,5.51 3.07,7.55 2.05,2.05 4.56,3.07 7.55,3.07l12.98 0 13.57 0c2.2,0 4.27,0.41 6.2,1.24 1.93,0.83 3.62,1.97 5.07,3.42 1.46,1.46 2.6,3.15 3.42,5.07 0.83,1.93 1.24,3.99 1.24,6.2 0,2.2 -0.41,4.31 -1.24,6.31 -0.83,2.01 -1.97,3.76 -3.42,5.25 -1.46,1.49 -3.15,2.69 -5.07,3.6 -1.93,0.9 -3.99,1.36 -6.2,1.36l-43.07 0 0 -5.9 43.07 0c2.67,0 5.02,-1.02 7.02,-3.07 2.01,-2.05 3.01,-4.56 3.01,-7.55 0,-2.99 -1,-5.41 -3.01,-7.26 -2.01,-1.85 -4.35,-2.77 -7.02,-2.77l-13.57 0 -12.98 0c-2.36,0 -4.54,-0.45 -6.55,-1.36 -2.01,-0.9 -3.76,-2.1 -5.25,-3.6 -1.49,-1.49 -2.65,-3.25 -3.48,-5.25 -0.83,-2.01 -1.24,-4.11 -1.24,-6.31 0,-2.2 0.41,-4.27 1.24,-6.2 0.83,-1.93 1.99,-3.62 3.48,-5.07 1.49,-1.46 3.25,-2.6 5.25,-3.42 2.01,-0.83 4.19,-1.24 6.55,-1.24l42.48 0 0 5.9 -42.48 0zm51.75 53.1l-5.9 0 0 -59 5.9 0 0 59zm0 -63.72l-5.9 0 0 -5.9 5.9 0 0 5.9z"/>
   <path class="fil0" d="M86.93 82.26l0 -7.38 0.86 0 2.73 4.19 -0.54 0.12 2.89 -4.31 0.86 0 0 7.38 -0.8 0 0 -6.58 0.35 0 -3.04 4.27 -2.81 -4.18 0.29 -0.41 0 6.9 -0.8 0zm8.67 0l0 -5.52 0.8 0 0 5.52 -0.8 0zm-0.04 -6.5l0 -0.87 0.88 0 0 0.87 -0.88 0zm2.65 1.43c0.18,-0.09 0.36,-0.17 0.55,-0.24 0.19,-0.07 0.38,-0.13 0.57,-0.17 0.2,-0.04 0.39,-0.08 0.6,-0.1 0.2,-0.02 0.41,-0.03 0.61,-0.03 0.54,0 0.97,0.08 1.28,0.24 0.32,0.16 0.55,0.39 0.69,0.69 0.14,0.3 0.22,0.67 0.22,1.09l0 3.59 -0.8 0 0 -3.59c0,-0.13 -0.02,-0.27 -0.05,-0.42 -0.03,-0.15 -0.1,-0.29 -0.19,-0.43 -0.1,-0.14 -0.24,-0.25 -0.44,-0.33 -0.2,-0.08 -0.46,-0.13 -0.8,-0.13 -0.23,0 -0.46,0.02 -0.71,0.06 -0.24,0.04 -0.49,0.09 -0.74,0.17l0 4.68 -0.8 0 0 -5.08zm6.34 5.08l0 -5.52 0.8 0 0 5.52 -0.8 0zm-0.04 -6.5l0 -0.87 0.88 0 0 0.87 -0.88 0zm4.21 6.67c-0.4,0 -0.73,-0.04 -1,-0.12 -0.27,-0.08 -0.55,-0.2 -0.83,-0.34l0 -0.84c0.23,0.13 0.43,0.23 0.61,0.32 0.18,0.09 0.36,0.15 0.54,0.19 0.18,0.04 0.39,0.06 0.63,0.06 0.37,0 0.67,-0.08 0.9,-0.24 0.23,-0.16 0.35,-0.37 0.35,-0.63 0,-0.21 -0.06,-0.37 -0.17,-0.48 -0.11,-0.11 -0.26,-0.2 -0.44,-0.28 -0.18,-0.07 -0.36,-0.15 -0.55,-0.23 -0.21,-0.06 -0.43,-0.12 -0.65,-0.19 -0.22,-0.07 -0.42,-0.16 -0.6,-0.28 -0.18,-0.11 -0.33,-0.26 -0.44,-0.44 -0.11,-0.18 -0.17,-0.41 -0.17,-0.7 0,-0.28 0.06,-0.52 0.17,-0.72 0.11,-0.2 0.26,-0.36 0.45,-0.49 0.18,-0.13 0.39,-0.22 0.62,-0.28 0.23,-0.06 0.46,-0.09 0.69,-0.09 0.33,0 0.62,0.04 0.85,0.13 0.24,0.09 0.48,0.19 0.73,0.3l0 0.8c-0.28,-0.15 -0.53,-0.27 -0.75,-0.36 -0.22,-0.09 -0.48,-0.14 -0.79,-0.14 -0.3,0 -0.57,0.06 -0.81,0.18 -0.24,0.12 -0.36,0.31 -0.36,0.56 0,0.21 0.06,0.37 0.18,0.49 0.12,0.12 0.28,0.22 0.48,0.29 0.2,0.07 0.41,0.14 0.64,0.2 0.18,0.06 0.38,0.12 0.58,0.19 0.2,0.07 0.38,0.16 0.55,0.28 0.17,0.11 0.31,0.26 0.41,0.45 0.11,0.18 0.16,0.42 0.16,0.71 0,0.39 -0.1,0.71 -0.3,0.97 -0.2,0.25 -0.45,0.44 -0.76,0.56 -0.31,0.12 -0.62,0.18 -0.93,0.18zm5.22 -0.08c-0.39,0 -0.72,-0.12 -0.98,-0.36 -0.27,-0.24 -0.4,-0.6 -0.4,-1.07l0 -3.45 -0.96 0 0 -0.73 0.96 0 0 -1.56 0.8 0 0 1.56 1.43 0 0 0.73 -1.43 0 0 3.2c0,0.31 0.05,0.54 0.14,0.7 0.1,0.15 0.29,0.23 0.59,0.23 0.13,0 0.26,-0.01 0.39,-0.04 0.13,-0.03 0.23,-0.06 0.31,-0.09l0 0.75c-0.1,0.04 -0.23,0.07 -0.39,0.09 -0.16,0.03 -0.31,0.04 -0.45,0.04zm2.28 -0.09l0 -5.08c0.09,-0.04 0.26,-0.1 0.51,-0.19 0.25,-0.09 0.56,-0.17 0.92,-0.24 0.36,-0.07 0.73,-0.11 1.11,-0.11 0.06,0 0.12,0.01 0.18,0.02 0.06,0.01 0.12,0.03 0.18,0.04l0 0.71c-0.19,-0.02 -0.38,-0.03 -0.56,-0.03 -0.18,0 -0.36,0.01 -0.53,0.03 -0.17,0.02 -0.34,0.04 -0.51,0.07 -0.17,0.03 -0.34,0.06 -0.51,0.09l0 4.69 -0.8 0zm4.77 2.13c-0.11,0 -0.21,-0.01 -0.3,-0.03 -0.09,-0.02 -0.16,-0.04 -0.22,-0.07l0 -0.73c0.05,0.02 0.12,0.04 0.2,0.07 0.08,0.02 0.17,0.03 0.28,0.03 0.25,0 0.45,-0.07 0.61,-0.21 0.15,-0.14 0.29,-0.33 0.39,-0.56 0.11,-0.24 0.2,-0.5 0.29,-0.79l0 0.32 -2.34 -5.68 0.91 0 1.84 4.71 -0.17 0 1.82 -4.71 0.8 0 -2.37 6.06c-0.17,0.43 -0.36,0.77 -0.56,0.99 -0.2,0.23 -0.41,0.39 -0.61,0.47 -0.2,0.08 -0.39,0.13 -0.57,0.13zm10.85 -1.97c-0.86,0 -1.5,-0.26 -1.92,-0.77 -0.42,-0.51 -0.62,-1.23 -0.62,-2.14 0,-0.96 0.22,-1.68 0.66,-2.16 0.44,-0.48 1.06,-0.72 1.86,-0.72 0.6,0 1.08,0.12 1.46,0.36 0.38,0.24 0.65,0.58 0.83,1.01 0.18,0.43 0.27,0.93 0.27,1.51 0,0.91 -0.22,1.62 -0.66,2.13 -0.44,0.52 -1.06,0.77 -1.87,0.77zm-0.01 -0.73c0.45,0 0.8,-0.1 1.05,-0.29 0.25,-0.2 0.43,-0.46 0.54,-0.79 0.11,-0.33 0.16,-0.69 0.16,-1.1 0,-0.43 -0.06,-0.81 -0.17,-1.13 -0.11,-0.32 -0.29,-0.57 -0.55,-0.75 -0.25,-0.18 -0.6,-0.27 -1.03,-0.27 -0.44,0 -0.79,0.1 -1.04,0.29 -0.25,0.19 -0.43,0.45 -0.54,0.77 -0.11,0.32 -0.16,0.68 -0.16,1.09 0,0.65 0.13,1.17 0.39,1.58 0.26,0.4 0.71,0.6 1.35,0.6zm4.54 0.56l0 -4.79 -0.95 0 0 -0.73 0.95 0 0 -0.3c0,-0.41 0.05,-0.74 0.14,-0.99 0.09,-0.25 0.21,-0.45 0.36,-0.6 0.15,-0.14 0.3,-0.25 0.46,-0.31 0.16,-0.06 0.32,-0.1 0.46,-0.11 0.15,-0.01 0.27,-0.02 0.35,-0.02 0.1,0 0.2,0.01 0.29,0.02 0.09,0.01 0.17,0.03 0.24,0.05l0 0.71c-0.05,-0.01 -0.11,-0.03 -0.18,-0.03 -0.07,-0.01 -0.14,-0.01 -0.22,-0.01 -0.13,0 -0.25,0.01 -0.39,0.02 -0.13,0.01 -0.25,0.06 -0.37,0.14 -0.11,0.08 -0.2,0.2 -0.27,0.38 -0.07,0.17 -0.1,0.42 -0.1,0.75l0 0.31 1.51 0 0 0.73 -1.51 0 0 4.79 -0.8 0zm8.79 0l0 -6.62 -2.61 0 0 -0.75 6 0 0 0.75 -2.6 0 0 6.62 -0.8 0zm3.73 0l0 -5.08c0.09,-0.04 0.26,-0.1 0.51,-0.19 0.25,-0.09 0.56,-0.17 0.92,-0.24 0.36,-0.07 0.73,-0.11 1.11,-0.11 0.06,0 0.12,0.01 0.18,0.02 0.06,0.01 0.12,0.03 0.18,0.04l0 0.71c-0.19,-0.02 -0.38,-0.03 -0.56,-0.03 -0.18,0 -0.36,0.01 -0.53,0.03 -0.17,0.02 -0.34,0.04 -0.51,0.07 -0.17,0.03 -0.34,0.06 -0.51,0.09l0 4.69 -0.8 0zm6.07 0.17c-0.24,0 -0.49,-0.03 -0.74,-0.08 -0.25,-0.05 -0.48,-0.14 -0.69,-0.27 -0.21,-0.13 -0.38,-0.3 -0.51,-0.51 -0.13,-0.22 -0.19,-0.49 -0.19,-0.82 0,-0.46 0.09,-0.82 0.26,-1.1 0.17,-0.28 0.41,-0.48 0.72,-0.6 0.31,-0.12 0.66,-0.18 1.06,-0.18 0.3,0 0.56,0.02 0.79,0.06 0.22,0.04 0.42,0.09 0.59,0.16 0.17,0.07 0.33,0.15 0.47,0.24l0.15 0.73c-0.17,-0.13 -0.41,-0.23 -0.74,-0.33 -0.32,-0.09 -0.67,-0.14 -1.06,-0.14 -0.46,0 -0.82,0.09 -1.07,0.27 -0.25,0.18 -0.38,0.43 -0.38,0.77 0,0.27 0.08,0.49 0.23,0.65 0.15,0.16 0.34,0.28 0.58,0.34 0.23,0.07 0.47,0.1 0.71,0.1 0.48,0 0.84,-0.03 1.09,-0.1 0.25,-0.07 0.37,-0.23 0.37,-0.48l0 -2.53c0,-0.43 -0.13,-0.74 -0.38,-0.94 -0.25,-0.2 -0.61,-0.3 -1.07,-0.3 -0.29,0 -0.61,0.04 -0.93,0.13 -0.33,0.08 -0.61,0.22 -0.85,0.4l0 -0.8c0.23,-0.15 0.53,-0.26 0.92,-0.34 0.38,-0.08 0.76,-0.12 1.12,-0.12 0.24,0 0.47,0.02 0.67,0.07 0.21,0.05 0.39,0.12 0.55,0.21 0.16,0.09 0.3,0.21 0.41,0.35 0.11,0.14 0.2,0.31 0.27,0.5 0.06,0.19 0.09,0.4 0.09,0.64l0 2.68c0,0.39 -0.12,0.68 -0.35,0.87 -0.23,0.19 -0.53,0.32 -0.91,0.38 -0.37,0.06 -0.77,0.09 -1.2,0.09zm6.51 0c-0.27,0 -0.55,-0.04 -0.84,-0.12 -0.29,-0.08 -0.57,-0.22 -0.83,-0.43 -0.26,-0.21 -0.48,-0.51 -0.64,-0.91 -0.17,-0.39 -0.25,-0.91 -0.25,-1.54 0,-0.86 0.21,-1.53 0.62,-2.03 0.42,-0.5 1.05,-0.75 1.9,-0.75 0.16,0 0.35,0.02 0.57,0.07 0.22,0.04 0.44,0.1 0.65,0.17 0.21,0.07 0.39,0.14 0.53,0.21l-0.28 0.28 0 -2.96 0.8 0 0 6.9c0,0.21 -0.07,0.38 -0.22,0.53 -0.14,0.14 -0.33,0.26 -0.56,0.34 -0.23,0.08 -0.47,0.15 -0.73,0.19 -0.26,0.04 -0.5,0.06 -0.73,0.06zm0.01 -0.73c0.38,0 0.72,-0.04 1,-0.13 0.28,-0.09 0.43,-0.2 0.43,-0.33l0 -3.46c-0.23,-0.13 -0.47,-0.23 -0.74,-0.29 -0.26,-0.06 -0.51,-0.09 -0.75,-0.09 -0.4,0 -0.72,0.09 -0.97,0.26 -0.25,0.17 -0.43,0.41 -0.54,0.72 -0.11,0.31 -0.17,0.66 -0.17,1.07 0,0.4 0.04,0.77 0.13,1.11 0.09,0.34 0.26,0.62 0.51,0.83 0.25,0.21 0.62,0.32 1.09,0.32zm6.27 0.73c-0.52,0 -0.98,-0.11 -1.36,-0.33 -0.38,-0.22 -0.68,-0.54 -0.88,-0.98 -0.21,-0.43 -0.31,-0.98 -0.31,-1.63 0,-0.95 0.22,-1.66 0.65,-2.14 0.43,-0.48 1.02,-0.71 1.77,-0.71 0.59,0 1.06,0.13 1.42,0.4 0.36,0.27 0.61,0.62 0.77,1.07 0.15,0.45 0.23,0.96 0.22,1.53l-4.43 0 0.06 -0.73 3.86 0 -0.31 0.11c-0.02,-0.55 -0.16,-0.97 -0.41,-1.24 -0.25,-0.27 -0.64,-0.41 -1.17,-0.41 -0.36,0 -0.66,0.07 -0.9,0.2 -0.24,0.13 -0.42,0.36 -0.54,0.69 -0.12,0.33 -0.18,0.79 -0.18,1.38 0,0.67 0.16,1.18 0.47,1.53 0.31,0.35 0.75,0.53 1.32,0.53 0.27,0 0.52,-0.02 0.75,-0.06 0.23,-0.04 0.44,-0.1 0.63,-0.17 0.19,-0.07 0.36,-0.15 0.51,-0.24l0 0.82c-0.27,0.13 -0.56,0.22 -0.88,0.29 -0.32,0.07 -0.67,0.1 -1.06,0.1zm-80.81 9.38l0 -7.38 3.03 0c0.72,0 1.27,0.18 1.63,0.54 0.37,0.36 0.55,0.9 0.55,1.6 0,0.43 -0.09,0.81 -0.27,1.14 -0.18,0.33 -0.42,0.59 -0.74,0.78 -0.32,0.19 -0.69,0.29 -1.12,0.29l0.33 -0.22 2.12 3.24 -0.94 0 -2.19 -3.38 0.4 0.41 -2.01 0 0 2.97 -0.8 0zm0.8 -3.73l1.87 0c0.61,0 1.06,-0.12 1.33,-0.37 0.28,-0.25 0.41,-0.61 0.41,-1.08 0,-0.44 -0.1,-0.79 -0.31,-1.06 -0.21,-0.26 -0.59,-0.39 -1.16,-0.39l-2.14 0 0 2.9zm8.4 3.89c-0.52,0 -0.98,-0.11 -1.36,-0.33 -0.38,-0.22 -0.68,-0.54 -0.88,-0.98 -0.21,-0.43 -0.31,-0.98 -0.31,-1.63 0,-0.95 0.22,-1.66 0.65,-2.14 0.43,-0.48 1.02,-0.71 1.77,-0.71 0.59,0 1.06,0.13 1.42,0.4 0.36,0.27 0.61,0.62 0.77,1.07 0.15,0.45 0.23,0.96 0.22,1.53l-4.43 0 0.06 -0.73 3.86 0 -0.31 0.11c-0.02,-0.55 -0.16,-0.97 -0.41,-1.24 -0.25,-0.27 -0.64,-0.41 -1.17,-0.41 -0.36,0 -0.66,0.07 -0.9,0.2 -0.24,0.13 -0.42,0.36 -0.54,0.69 -0.12,0.33 -0.18,0.79 -0.18,1.38 0,0.67 0.16,1.18 0.47,1.53 0.31,0.35 0.75,0.53 1.32,0.53 0.27,0 0.52,-0.02 0.75,-0.06 0.23,-0.04 0.44,-0.1 0.63,-0.17 0.19,-0.07 0.36,-0.15 0.51,-0.24l0 0.82c-0.27,0.13 -0.56,0.22 -0.88,0.29 -0.32,0.07 -0.67,0.1 -1.06,0.1zm5.94 -0.01c-0.16,0 -0.34,-0.02 -0.55,-0.07 -0.2,-0.04 -0.4,-0.1 -0.59,-0.17 -0.19,-0.07 -0.36,-0.14 -0.51,-0.21l0.28 -0.28 0 2.96 -0.8 0 0 -6.92c0,-0.23 0.07,-0.41 0.22,-0.55 0.14,-0.14 0.33,-0.25 0.56,-0.33 0.23,-0.08 0.47,-0.13 0.73,-0.17 0.26,-0.03 0.5,-0.05 0.73,-0.05 0.44,0 0.86,0.09 1.25,0.28 0.39,0.18 0.71,0.5 0.95,0.93 0.24,0.44 0.37,1.03 0.37,1.79 0,0.57 -0.1,1.06 -0.3,1.48 -0.2,0.42 -0.5,0.74 -0.89,0.96 -0.39,0.22 -0.87,0.34 -1.44,0.34zm0 -0.73c0.41,0 0.74,-0.09 1,-0.26 0.26,-0.17 0.46,-0.41 0.59,-0.72 0.13,-0.31 0.2,-0.66 0.2,-1.06 0,-0.4 -0.04,-0.77 -0.13,-1.12 -0.09,-0.35 -0.26,-0.62 -0.51,-0.83 -0.25,-0.21 -0.62,-0.32 -1.09,-0.32 -0.38,0 -0.72,0.04 -1,0.13 -0.28,0.09 -0.43,0.21 -0.43,0.38l0 3.42c0.23,0.13 0.46,0.23 0.69,0.29 0.23,0.06 0.46,0.09 0.69,0.09zm6.44 0.74c-0.49,0 -0.9,-0.08 -1.25,-0.25 -0.35,-0.17 -0.61,-0.42 -0.79,-0.74 -0.18,-0.32 -0.27,-0.72 -0.27,-1.19l0 -3.49 0.8 0 0 3.32c0,0.56 0.12,0.97 0.37,1.23 0.25,0.26 0.63,0.39 1.14,0.39 0.52,0 0.9,-0.13 1.14,-0.39 0.25,-0.26 0.37,-0.67 0.37,-1.23l0 -3.32 0.8 0 0 3.49c0,0.7 -0.2,1.24 -0.6,1.62 -0.4,0.38 -0.97,0.57 -1.71,0.57zm6.26 0c-0.29,0 -0.56,-0.02 -0.82,-0.05 -0.26,-0.03 -0.49,-0.09 -0.7,-0.18 -0.2,-0.08 -0.36,-0.2 -0.48,-0.34 -0.12,-0.14 -0.18,-0.32 -0.18,-0.54l0 -6.91 0.8 0 0 2.96 -0.28 -0.28c0.15,-0.07 0.33,-0.14 0.54,-0.21 0.21,-0.07 0.43,-0.12 0.65,-0.17 0.22,-0.04 0.41,-0.07 0.58,-0.07 0.86,0 1.49,0.25 1.9,0.75 0.41,0.5 0.62,1.17 0.62,2.03 0,0.63 -0.08,1.15 -0.25,1.54 -0.17,0.39 -0.39,0.7 -0.65,0.91 -0.26,0.21 -0.54,0.35 -0.85,0.43 -0.3,0.08 -0.59,0.12 -0.87,0.12zm-0.08 -0.73c0.52,0 0.92,-0.11 1.18,-0.32 0.27,-0.21 0.44,-0.49 0.54,-0.83 0.09,-0.34 0.14,-0.71 0.14,-1.11 0,-0.41 -0.06,-0.76 -0.17,-1.07 -0.11,-0.31 -0.29,-0.55 -0.54,-0.72 -0.24,-0.17 -0.57,-0.26 -0.97,-0.26 -0.23,0 -0.48,0.03 -0.74,0.09 -0.27,0.06 -0.51,0.16 -0.74,0.29l0 3.36c0,0.16 0.07,0.28 0.22,0.37 0.14,0.08 0.32,0.13 0.52,0.16 0.2,0.03 0.39,0.04 0.57,0.04zm4.99 0.56l-0.8 0 0 -7.62 0.8 0 0 7.62zm1.81 0l0 -5.52 0.8 0 0 5.52 -0.8 0zm-0.04 -6.5l0 -0.87 0.88 0 0 0.87 -0.88 0zm4.96 6.59c-0.29,0 -0.6,-0.04 -0.9,-0.12 -0.31,-0.08 -0.59,-0.22 -0.84,-0.42 -0.25,-0.2 -0.46,-0.49 -0.61,-0.87 -0.15,-0.38 -0.23,-0.86 -0.23,-1.45 0,-0.59 0.08,-1.07 0.23,-1.44 0.15,-0.37 0.36,-0.66 0.61,-0.87 0.25,-0.21 0.53,-0.35 0.84,-0.43 0.31,-0.08 0.61,-0.12 0.9,-0.12 0.28,0 0.56,0.03 0.83,0.08 0.28,0.05 0.54,0.13 0.8,0.23l0 0.76c-0.24,-0.1 -0.49,-0.18 -0.75,-0.23 -0.26,-0.05 -0.52,-0.08 -0.8,-0.08 -0.66,0 -1.13,0.17 -1.43,0.5 -0.3,0.33 -0.45,0.86 -0.45,1.59 0,0.74 0.15,1.27 0.45,1.6 0.3,0.33 0.78,0.49 1.43,0.49 0.27,0 0.54,-0.03 0.8,-0.08 0.26,-0.05 0.51,-0.13 0.75,-0.23l0 0.77c-0.26,0.1 -0.53,0.17 -0.8,0.22 -0.28,0.05 -0.55,0.08 -0.83,0.08zm8.6 0.08c-0.86,0 -1.5,-0.26 -1.92,-0.77 -0.42,-0.51 -0.62,-1.23 -0.62,-2.14 0,-0.96 0.22,-1.68 0.66,-2.16 0.44,-0.48 1.06,-0.72 1.86,-0.72 0.6,0 1.08,0.12 1.46,0.36 0.38,0.24 0.65,0.58 0.83,1.01 0.18,0.43 0.27,0.93 0.27,1.51 0,0.91 -0.22,1.62 -0.66,2.13 -0.44,0.52 -1.06,0.77 -1.87,0.77zm-0.01 -0.73c0.45,0 0.8,-0.1 1.05,-0.29 0.25,-0.2 0.43,-0.46 0.54,-0.79 0.11,-0.33 0.16,-0.69 0.16,-1.1 0,-0.43 -0.06,-0.81 -0.17,-1.13 -0.11,-0.32 -0.29,-0.57 -0.55,-0.75 -0.25,-0.18 -0.6,-0.27 -1.03,-0.27 -0.44,0 -0.79,0.1 -1.04,0.29 -0.25,0.19 -0.43,0.45 -0.54,0.77 -0.11,0.32 -0.16,0.68 -0.16,1.09 0,0.65 0.13,1.17 0.39,1.58 0.26,0.4 0.71,0.6 1.35,0.6zm4.54 0.56l0 -4.79 -0.95 0 0 -0.73 0.95 0 0 -0.3c0,-0.41 0.05,-0.74 0.14,-0.99 0.09,-0.25 0.21,-0.45 0.36,-0.6 0.15,-0.14 0.3,-0.25 0.46,-0.31 0.16,-0.06 0.32,-0.1 0.46,-0.11 0.15,-0.01 0.27,-0.02 0.35,-0.02 0.1,0 0.2,0.01 0.29,0.02 0.09,0.01 0.17,0.03 0.24,0.05l0 0.71c-0.05,-0.01 -0.11,-0.03 -0.18,-0.03 -0.07,-0.01 -0.14,-0.01 -0.22,-0.01 -0.13,0 -0.25,0.01 -0.39,0.02 -0.13,0.01 -0.25,0.06 -0.37,0.14 -0.11,0.08 -0.2,0.2 -0.27,0.38 -0.07,0.17 -0.1,0.42 -0.1,0.75l0 0.31 1.51 0 0 0.73 -1.51 0 0 4.79 -0.8 0zm6.9 0l0 -7.38 0.8 0 0 7.38 -0.8 0zm2.62 -5.08c0.18,-0.09 0.36,-0.17 0.55,-0.24 0.19,-0.07 0.38,-0.13 0.57,-0.17 0.2,-0.04 0.39,-0.08 0.6,-0.1 0.2,-0.02 0.41,-0.03 0.61,-0.03 0.54,0 0.97,0.08 1.28,0.24 0.32,0.16 0.55,0.39 0.69,0.69 0.14,0.3 0.22,0.67 0.22,1.09l0 3.59 -0.8 0 0 -3.59c0,-0.13 -0.02,-0.27 -0.05,-0.42 -0.03,-0.15 -0.1,-0.29 -0.19,-0.43 -0.1,-0.14 -0.24,-0.25 -0.44,-0.33 -0.2,-0.08 -0.46,-0.13 -0.8,-0.13 -0.23,0 -0.46,0.02 -0.71,0.06 -0.24,0.04 -0.49,0.09 -0.74,0.17l0 4.68 -0.8 0 0 -5.08zm8.58 5.24c-0.27,0 -0.55,-0.04 -0.84,-0.12 -0.29,-0.08 -0.57,-0.22 -0.83,-0.43 -0.26,-0.21 -0.48,-0.51 -0.64,-0.91 -0.17,-0.39 -0.25,-0.91 -0.25,-1.54 0,-0.86 0.21,-1.53 0.62,-2.03 0.42,-0.5 1.05,-0.75 1.9,-0.75 0.16,0 0.35,0.02 0.57,0.07 0.22,0.04 0.44,0.1 0.65,0.17 0.21,0.07 0.39,0.14 0.53,0.21l-0.28 0.28 0 -2.96 0.8 0 0 6.9c0,0.21 -0.07,0.38 -0.22,0.53 -0.14,0.14 -0.33,0.26 -0.56,0.34 -0.23,0.08 -0.47,0.15 -0.73,0.19 -0.26,0.04 -0.5,0.06 -0.73,0.06zm0.01 -0.73c0.38,0 0.72,-0.04 1,-0.13 0.28,-0.09 0.43,-0.2 0.43,-0.33l0 -3.46c-0.23,-0.13 -0.47,-0.23 -0.74,-0.29 -0.26,-0.06 -0.51,-0.09 -0.75,-0.09 -0.4,0 -0.72,0.09 -0.97,0.26 -0.25,0.17 -0.43,0.41 -0.54,0.72 -0.11,0.31 -0.17,0.66 -0.17,1.07 0,0.4 0.04,0.77 0.13,1.11 0.09,0.34 0.26,0.62 0.51,0.83 0.25,0.21 0.62,0.32 1.09,0.32zm6.26 0.73c-0.86,0 -1.5,-0.26 -1.92,-0.77 -0.42,-0.51 -0.62,-1.23 -0.62,-2.14 0,-0.96 0.22,-1.68 0.66,-2.16 0.44,-0.48 1.06,-0.72 1.86,-0.72 0.6,0 1.08,0.12 1.46,0.36 0.38,0.24 0.65,0.58 0.83,1.01 0.18,0.43 0.27,0.93 0.27,1.51 0,0.91 -0.22,1.62 -0.66,2.13 -0.44,0.52 -1.06,0.77 -1.87,0.77zm-0.01 -0.73c0.45,0 0.8,-0.1 1.05,-0.29 0.25,-0.2 0.43,-0.46 0.54,-0.79 0.11,-0.33 0.16,-0.69 0.16,-1.1 0,-0.43 -0.06,-0.81 -0.17,-1.13 -0.11,-0.32 -0.29,-0.57 -0.55,-0.75 -0.25,-0.18 -0.6,-0.27 -1.03,-0.27 -0.44,0 -0.79,0.1 -1.04,0.29 -0.25,0.19 -0.43,0.45 -0.54,0.77 -0.11,0.32 -0.16,0.68 -0.16,1.09 0,0.65 0.13,1.17 0.39,1.58 0.26,0.4 0.71,0.6 1.35,0.6zm4.04 -4.51c0.18,-0.09 0.36,-0.17 0.55,-0.24 0.19,-0.07 0.38,-0.13 0.57,-0.17 0.2,-0.04 0.39,-0.08 0.6,-0.1 0.2,-0.02 0.41,-0.03 0.61,-0.03 0.54,0 0.97,0.08 1.28,0.24 0.32,0.16 0.55,0.39 0.69,0.69 0.14,0.3 0.22,0.67 0.22,1.09l0 3.59 -0.8 0 0 -3.59c0,-0.13 -0.02,-0.27 -0.05,-0.42 -0.03,-0.15 -0.1,-0.29 -0.19,-0.43 -0.1,-0.14 -0.24,-0.25 -0.44,-0.33 -0.2,-0.08 -0.46,-0.13 -0.8,-0.13 -0.23,0 -0.46,0.02 -0.71,0.06 -0.24,0.04 -0.49,0.09 -0.74,0.17l0 4.68 -0.8 0 0 -5.08zm8.57 5.24c-0.52,0 -0.98,-0.11 -1.36,-0.33 -0.38,-0.22 -0.68,-0.54 -0.88,-0.98 -0.21,-0.43 -0.31,-0.98 -0.31,-1.63 0,-0.95 0.22,-1.66 0.65,-2.14 0.43,-0.48 1.02,-0.71 1.77,-0.71 0.59,0 1.06,0.13 1.42,0.4 0.36,0.27 0.61,0.62 0.77,1.07 0.15,0.45 0.23,0.96 0.22,1.53l-4.43 0 0.06 -0.73 3.86 0 -0.31 0.11c-0.02,-0.55 -0.16,-0.97 -0.41,-1.24 -0.25,-0.27 -0.64,-0.41 -1.17,-0.41 -0.36,0 -0.66,0.07 -0.9,0.2 -0.24,0.13 -0.42,0.36 -0.54,0.69 -0.12,0.33 -0.18,0.79 -0.18,1.38 0,0.67 0.16,1.18 0.47,1.53 0.31,0.35 0.75,0.53 1.32,0.53 0.27,0 0.52,-0.02 0.75,-0.06 0.23,-0.04 0.44,-0.1 0.63,-0.17 0.19,-0.07 0.36,-0.15 0.51,-0.24l0 0.82c-0.27,0.13 -0.56,0.22 -0.88,0.29 -0.32,0.07 -0.67,0.1 -1.06,0.1zm5.33 0c-0.4,0 -0.73,-0.04 -1,-0.12 -0.27,-0.08 -0.55,-0.2 -0.83,-0.34l0 -0.84c0.23,0.13 0.43,0.23 0.61,0.32 0.18,0.09 0.36,0.15 0.54,0.19 0.18,0.04 0.39,0.06 0.63,0.06 0.37,0 0.67,-0.08 0.9,-0.24 0.23,-0.16 0.35,-0.37 0.35,-0.63 0,-0.21 -0.06,-0.37 -0.17,-0.48 -0.11,-0.11 -0.26,-0.2 -0.44,-0.28 -0.18,-0.07 -0.36,-0.15 -0.55,-0.23 -0.21,-0.06 -0.43,-0.12 -0.65,-0.19 -0.22,-0.07 -0.42,-0.16 -0.6,-0.28 -0.18,-0.11 -0.33,-0.26 -0.44,-0.44 -0.11,-0.18 -0.17,-0.41 -0.17,-0.7 0,-0.28 0.06,-0.52 0.17,-0.72 0.11,-0.2 0.26,-0.36 0.45,-0.49 0.18,-0.13 0.39,-0.22 0.62,-0.28 0.23,-0.06 0.46,-0.09 0.69,-0.09 0.33,0 0.62,0.04 0.85,0.13 0.24,0.09 0.48,0.19 0.73,0.3l0 0.8c-0.28,-0.15 -0.53,-0.27 -0.75,-0.36 -0.22,-0.09 -0.48,-0.14 -0.79,-0.14 -0.3,0 -0.57,0.06 -0.81,0.18 -0.24,0.12 -0.36,0.31 -0.36,0.56 0,0.21 0.06,0.37 0.18,0.49 0.12,0.12 0.28,0.22 0.48,0.29 0.2,0.07 0.41,0.14 0.64,0.2 0.18,0.06 0.38,0.12 0.58,0.19 0.2,0.07 0.38,0.16 0.55,0.28 0.17,0.11 0.31,0.26 0.41,0.45 0.11,0.18 0.16,0.42 0.16,0.71 0,0.39 -0.1,0.71 -0.3,0.97 -0.2,0.25 -0.45,0.44 -0.76,0.56 -0.31,0.12 -0.62,0.18 -0.93,0.18zm3.53 -0.17l0 -5.52 0.8 0 0 5.52 -0.8 0zm-0.04 -6.5l0 -0.87 0.88 0 0 0.87 -0.88 0zm4.56 6.67c-0.24,0 -0.49,-0.03 -0.74,-0.08 -0.25,-0.05 -0.48,-0.14 -0.69,-0.27 -0.21,-0.13 -0.38,-0.3 -0.51,-0.51 -0.13,-0.22 -0.19,-0.49 -0.19,-0.82 0,-0.46 0.09,-0.82 0.26,-1.1 0.17,-0.28 0.41,-0.48 0.72,-0.6 0.31,-0.12 0.66,-0.18 1.06,-0.18 0.3,0 0.56,0.02 0.79,0.06 0.22,0.04 0.42,0.09 0.59,0.16 0.17,0.07 0.33,0.15 0.47,0.24l0.15 0.73c-0.17,-0.13 -0.41,-0.23 -0.74,-0.33 -0.32,-0.09 -0.67,-0.14 -1.06,-0.14 -0.46,0 -0.82,0.09 -1.07,0.27 -0.25,0.18 -0.38,0.43 -0.38,0.77 0,0.27 0.08,0.49 0.23,0.65 0.15,0.16 0.34,0.28 0.58,0.34 0.23,0.07 0.47,0.1 0.71,0.1 0.48,0 0.84,-0.03 1.09,-0.1 0.25,-0.07 0.37,-0.23 0.37,-0.48l0 -2.53c0,-0.43 -0.13,-0.74 -0.38,-0.94 -0.25,-0.2 -0.61,-0.3 -1.07,-0.3 -0.29,0 -0.61,0.04 -0.93,0.13 -0.33,0.08 -0.61,0.22 -0.85,0.4l0 -0.8c0.23,-0.15 0.53,-0.26 0.92,-0.34 0.38,-0.08 0.76,-0.12 1.12,-0.12 0.24,0 0.47,0.02 0.67,0.07 0.21,0.05 0.39,0.12 0.55,0.21 0.16,0.09 0.3,0.21 0.41,0.35 0.11,0.14 0.2,0.31 0.27,0.5 0.06,0.19 0.09,0.4 0.09,0.64l0 2.68c0,0.39 -0.12,0.68 -0.35,0.87 -0.23,0.19 -0.53,0.32 -0.91,0.38 -0.37,0.06 -0.77,0.09 -1.2,0.09z"/>
  </g>
 </g>
</svg>
